<?xml version="1.0" standalone="no"?>
<!DOCTYPE svg PUBLIC "-//W3C//DTD SVG 20010904//EN"
 "http://www.w3.org/TR/2001/REC-SVG-20010904/DTD/svg10.dtd">
<svg version="1.0" xmlns="http://www.w3.org/2000/svg"
 width="780.000000pt" height="780.000000pt" viewBox="0 0 780.000000 780.000000"
 preserveAspectRatio="xMidYMid meet">
<metadata>
Created by potrace 1.14, written by Peter Selinger 2001-2017
</metadata>
<g transform="translate(0.000000,780.000000) scale(0.100000,-0.100000)"
fill="#000000" stroke="none">
<path d="M3610 7434 c-14 -3 -90 -14 -170 -25 -253 -35 -574 -117 -781 -199
-138 -55 -387 -175 -530 -256 -305 -173 -646 -462 -900 -765 -457 -542 -722
-1154 -815 -1884 -22 -168 -25 -613 -6 -770 87 -719 334 -1320 759 -1851 605
-758 1519 -1245 2463 -1315 212 -16 605 -6 775 20 685 103 1273 365 1785 794
127 107 395 378 487 493 156 196 318 459 445 724 74 154 104 229 157 393 237
731 239 1492 5 2218 -42 130 -103 292 -114 299 -4 3 -30 53 -57 111 -149 316
-330 584 -585 867 -559 620 -1316 1016 -2158 1128 -119 16 -695 29 -760 18z
m720 -609 c674 -103 1278 -414 1713 -882 425 -457 658 -919 777 -1537 26 -138
44 -481 36 -676 -26 -590 -242 -1161 -628 -1658 -98 -126 -347 -379 -468 -476
-284 -227 -673 -431 -1000 -525 -58 -17 -174 -46 -258 -66 l-153 -35 -407 0
c-437 0 -462 2 -674 55 -576 145 -982 366 -1377 750 -320 311 -519 603 -689
1011 -88 208 -146 421 -187 684 -26 162 -32 586 -11 770 42 366 114 611 276
945 392 806 1080 1364 1955 1584 150 37 281 60 410 71 152 13 562 4 685 -15z"/>
<path d="M3954 6523 c-10 -21 -19 -5098 -9 -5190 6 -54 9 -62 30 -67 36 -9
254 12 401 39 547 101 1021 351 1409 741 408 410 641 880 742 1496 25 151 25
581 0 733 -101 606 -339 1077 -752 1490 -221 222 -461 393 -717 514 -269 128
-607 224 -882 250 -162 16 -212 15 -222 -6z m740 -574 c466 -155 940 -580
1181 -1059 214 -425 283 -912 194 -1370 -55 -285 -90 -393 -197 -607 -102
-203 -206 -346 -376 -521 -234 -239 -354 -327 -641 -466 -167 -82 -220 -98
-308 -98 -89 0 -149 14 -233 52 l-64 29 -1 983 c-1 1887 2 2933 8 2971 7 43
20 52 134 91 105 36 185 35 303 -5z"/>
<path d="M4727 4473 c-3 -4 -41 -96 -85 -203 -44 -107 -137 -330 -207 -494
-95 -227 -123 -301 -113 -308 7 -4 38 -8 68 -8 l55 0 64 145 64 145 187 0
c103 0 201 -3 218 -6 27 -5 35 -18 80 -113 28 -58 55 -118 61 -132 8 -23 17
-27 62 -31 74 -7 92 -1 84 30 -8 34 -336 786 -388 892 l-42 85 -52 3 c-28 2
-53 -1 -56 -5z m130 -384 c33 -79 64 -154 68 -166 l6 -23 -140 0 c-120 0 -141
2 -141 15 0 28 125 325 135 322 5 -2 38 -68 72 -148z"/>
<path d="M5407 4473 c-4 -3 -7 -234 -7 -511 l0 -505 203 6 c111 4 246 7 300 7
l97 0 0 54 0 53 -212 5 c-177 5 -214 9 -223 22 -15 20 -25 256 -25 604 l0 272
-63 0 c-35 0 -67 -3 -70 -7z"/>
<path d="M1970 3971 l0 -549 68 5 c37 3 69 7 71 9 3 2 6 91 8 197 2 105 6 211
9 235 6 48 10 49 95 31 83 -18 152 -93 324 -351 l78 -118 73 0 c41 0 76 5 79
11 13 20 -176 311 -283 437 l-53 63 65 70 c79 85 90 115 84 228 -5 95 -19 131
-72 184 -76 76 -160 97 -387 97 l-159 0 0 -549z m375 397 c17 -9 41 -28 55
-43 22 -23 25 -36 25 -100 0 -59 -4 -79 -21 -102 -35 -48 -88 -67 -191 -71
l-93 -4 0 172 0 173 98 -5 c60 -3 108 -11 127 -20z"/>
<path d="M3109 4147 c-89 -34 -165 -104 -201 -185 -17 -41 -19 -64 -16 -172 3
-112 7 -131 31 -182 32 -65 84 -116 156 -153 45 -22 63 -25 159 -25 173 0 255
35 266 115 10 66 1 70 -93 41 -97 -31 -204 -35 -257 -10 -47 23 -101 85 -114
134 -6 22 -8 44 -6 49 3 5 114 12 246 16 l240 8 0 31 c0 40 -21 117 -50 183
-25 58 -83 117 -138 140 -51 21 -178 27 -223 10z m182 -128 c27 -14 78 -77 85
-104 14 -55 8 -57 -165 -53 -88 1 -163 6 -166 10 -4 4 -4 24 0 45 8 45 70 109
112 116 35 6 113 -2 134 -14z"/>
</g>
</svg>
